<?xml version="1.0" encoding="utf-8"?>
<!-- Generator: Adobe Illustrator 21.1.0, SVG Export Plug-In . SVG Version: 6.00 Build 0)  -->
<svg version="1.1" id="Layer_1" focusable="false" xmlns="http://www.w3.org/2000/svg" xmlns:xlink="http://www.w3.org/1999/xlink"
	 x="0px" y="0px" viewBox="0 0 250 75" style="enable-background:new 0 0 250 75;" xml:space="preserve">
<g>
	<rect x="113" y="14.3" width="16.5" height="47.1"/>
	<rect x="160.3" y="14.3" width="16.5" height="47.1"/>
	<rect x="197.5" y="14.3" width="16.5" height="47.1"/>
	<path d="M187,13.4c-5.1,0-9.4,4-9.4,9.4s4,9.4,9.4,9.4c5.1,0,9.4-4.3,9.4-9.4C196.2,17.6,192.2,13.4,187,13.4"/>
	<path d="M234.4,40.1c-0.9-1.7-0.9-2.7,0-4.3l13-21.3h-18c0,0-10.9,17.7-12.5,20.1c-1.5,2.4-1.5,4,0,6.4s12.2,20.1,12.2,20.1h18
		C247.4,61.5,234.5,40.2,234.4,40.1"/>
	<path d="M150.3,21.8c-0.9-4.3-4.6-7.4-9.1-7.4h-10.7l10.6,47.1h18L150.3,21.8z"/>
</g>
</svg>
