<?xml version="1.0" encoding="utf-8"?>
<!-- Generator: Adobe Illustrator 21.1.0, SVG Export Plug-In . SVG Version: 6.00 Build 0)  -->
<svg version="1.1" id="Layer_1" focusable="false" xmlns="http://www.w3.org/2000/svg" xmlns:xlink="http://www.w3.org/1999/xlink"
	 x="0px" y="0px" viewBox="0 0 250 75" style="enable-background:new 0 0 250 75;" xml:space="preserve">
<g>
	<rect x="77.4" y="14.3" width="16.5" height="47.1"/>
	<rect x="124.7" y="14.3" width="16.5" height="47.1"/>
	<rect x="161.9" y="14.3" width="16.5" height="47.1"/>
	<path d="M151.4,13.4c-5.1,0-9.4,4-9.4,9.4s4,9.4,9.4,9.4c5.1,0,9.4-4.3,9.4-9.4C160.6,17.6,156.6,13.4,151.4,13.4"/>
	<path d="M198.8,40.1c-0.9-1.7-0.9-2.7,0-4.3l13-21.3h-18c0,0-10.9,17.7-12.5,20.1c-1.5,2.4-1.5,4,0,6.4s12.2,20.1,12.2,20.1h18
		C211.8,61.5,198.9,40.2,198.8,40.1"/>
	<path d="M114.7,21.8c-0.9-4.3-4.6-7.4-9.1-7.4H94.9l10.6,47.1h18L114.7,21.8z"/>
</g>
<g>
	<g>
		<defs>
			<polygon id="SVGID_1_" points="160.1,33.2 160.2,33.2 160.1,33.5 			"/>
		</defs>
		<clipPath id="SVGID_2_">
			<use xlink:href="#SVGID_1_"  style="overflow:visible;"/>
		</clipPath>
	</g>
</g>
</svg>
