<?xml version="1.0" encoding="utf-8"?>
<!-- Generator: Adobe Illustrator 21.1.0, SVG Export Plug-In . SVG Version: 6.00 Build 0)  -->
<svg version="1.1" id="Layer_1" focusable="false" xmlns="http://www.w3.org/2000/svg" xmlns:xlink="http://www.w3.org/1999/xlink"
	 x="0px" y="0px" viewBox="0 0 249.9 75" style="enable-background:new 0 0 249.9 75;" xml:space="preserve">
<g>
	<g>
		<path d="M26,42.5c-11.4,0-20.7-9.3-20.7-20.7C5.3,10.4,14.6,1.1,26,1.1s20.7,9.3,20.7,20.7S37.4,42.5,26,42.5z M26,4.2
			c-9.7,0-17.6,7.9-17.6,17.6S16.3,39.4,26,39.4s17.6-7.9,17.6-17.6S35.7,4.2,26,4.2z"/>
		<polygon points="38.3,68.8 30.2,60.7 22.1,68.8 14,60.7 6.9,67.8 4.9,65.7 14,56.6 22.1,64.7 30.2,56.6 38.3,64.7 45.4,57.6 
			47.4,59.7 		"/>
	</g>
	<g>
		<path d="M73.8,42.2h-2.9v-2.9h2.9V42.2z M73.8,58.4h-2.9V44.3h2.9V58.4z"/>
		<path d="M81.4,58.4h-2.9V44.3h2.9v1.2c0.4-0.8,1.8-1.6,3.3-1.6c2.4,0,5.6,1.5,5.6,5.8v8.6h-2.9v-8.6c0-2.1-1.2-3.1-3-3.1
			s-3,1-3,3.1V58.4L81.4,58.4z"/>
		<path d="M93.9,53.9h3c0.2,1.4,1.6,2,3.1,2c1.3,0,2.3-0.3,2.3-1.5c0-1-0.8-1.3-1.8-1.5l-2.7-0.7c-1.9-0.5-3.6-1.5-3.6-4.2
			c0-2.8,2.2-4.1,5.1-4.1c3,0,5.1,1.4,5.4,4.5h-3c-0.2-1.2-1.3-1.7-2.6-1.7c-0.9,0-2,0.3-2,1.4c0,0.8,0.8,1.1,1.6,1.3l2.6,0.7
			c2.6,0.7,3.8,1.7,3.8,4.4c0,2.8-2.2,4.2-5.2,4.2C96.6,58.6,94,57.1,93.9,53.9z"/>
		<path d="M112.8,54.3c0,1,0.2,1.3,1.3,1.3h2.2v2.8h-3c-2.3,0-3.4-1.1-3.4-3.4v-8h-2v-2.7h2v-3.2h2.9v3.2h3.5V47h-3.5V54.3z"/>
		<path d="M123.1,42.2h-2.9v-2.9h2.9V42.2z M123.1,58.4h-2.9V44.3h2.9V58.4z"/>
		<path d="M131.8,54.3c0,1,0.2,1.3,1.3,1.3h2.2v2.8h-3c-2.3,0-3.4-1.1-3.4-3.4v-8h-2v-2.7h2v-3.2h2.9v3.2h3.5V47h-3.5V54.3z"/>
		<path d="M142,52.7c0,2.1,1.2,3.1,2.9,3.1s2.9-1,2.9-3.1v-8.5h2.9v14.1h-2.9V57c-0.4,0.8-1.8,1.6-3.3,1.6c-2.4,0-5.4-1.7-5.4-5.8
			v-8.5h2.9L142,52.7L142,52.7z"/>
		<path d="M159,54.3c0,1,0.2,1.3,1.3,1.3h2.2v2.8h-3c-2.3,0-3.4-1.1-3.4-3.4v-8h-2v-2.7h2v-3.2h2.9v3.2h3.5V47H159V54.3z"/>
		<path d="M170,54.3c0,1,0.2,1.3,1.3,1.3h2.2v2.8h-3c-2.3,0-3.4-1.1-3.4-3.4v-8h-2v-2.7h2v-3.2h2.9v3.2h3.5V47H170V54.3z"/>
	</g>
	<g>
		<path d="M84.2,11.1h2.9v19.1h-2.9V16.9L80.3,25h-2.4L74,16.9v13.3h-3V11.1h3l5.1,10.6L84.2,11.1z"/>
		<path d="M100.2,25.7h2.9c-0.5,3.7-3.5,4.8-5.8,4.8c-2.5,0-5.9-1.2-5.9-5.8v-3.1c0-4.6,3.4-5.8,5.9-5.8s5.9,1.2,5.9,5.8v2.5h-8.9
			v0.5c0,2.1,1.2,3.1,3,3.1C98.7,27.7,99.8,27.1,100.2,25.7z M94.3,21.5L94.3,21.5h6l0,0c0-2-1.3-3.1-3-3.1
			C95.5,18.5,94.3,19.5,94.3,21.5z"/>
		<path d="M111.2,26.1c0,1,0.2,1.3,1.3,1.3h2.2v2.8h-3c-2.3,0-3.4-1.1-3.4-3.4v-8h-2v-2.7h2v-3.2h2.9v3.2h3.5v2.7h-3.5V26.1z"/>
		<path d="M127,25.7h2.9c-0.5,3.7-3.5,4.8-5.8,4.8c-2.5,0-5.9-1.2-5.9-5.8v-3.1c0-4.6,3.4-5.8,5.9-5.8s5.9,1.2,5.9,5.8v2.5h-8.9v0.5
			c0,2.1,1.2,3.1,3,3.1C125.6,27.7,126.6,27.1,127,25.7z M121.1,21.5L121.1,21.5h6l0,0c0-2-1.3-3.1-3-3.1
			C122.4,18.5,121.1,19.5,121.1,21.5z"/>
		<path d="M134,21.6c0-4.6,3.4-5.8,5.9-5.8s5.9,1.2,5.9,5.8v3.1c0,4.6-3.4,5.8-5.9,5.8s-5.9-1.2-5.9-5.8V21.6z M142.8,21.6
			c0-2.1-1.2-3.1-3-3.1s-3,1-3,3.1v3c0,2.1,1.2,3.1,3,3.1s3-1,3-3.1V21.6z"/>
		<path d="M155.6,18.7c-1.8,0-3,1-3,3.1v8.4h-2.9V16.1h2.9v1.4c0.4-0.8,1.8-1.6,3.3-1.6h1.1v2.8C157,18.7,155.6,18.7,155.6,18.7z"/>
		<path d="M159.9,21.6c0-4.6,3.4-5.8,5.9-5.8s5.9,1.2,5.9,5.8v3.1c0,4.6-3.4,5.8-5.9,5.8s-5.9-1.2-5.9-5.8
			C159.9,24.6,159.9,21.6,159.9,21.6z M168.8,21.6c0-2.1-1.2-3.1-3-3.1s-3,1-3,3.1v3c0,2.1,1.2,3.1,3,3.1s3-1,3-3.1V21.6z"/>
		<path d="M178.7,26.1c0,1,0.2,1.3,1.3,1.3h0.4v2.8h-1.3c-2.3,0-3.4-1.1-3.4-3.4V11.1h2.9L178.7,26.1L178.7,26.1z"/>
		<path d="M183.9,21.6c0-4.6,3.4-5.8,5.9-5.8s5.9,1.2,5.9,5.8v3.1c0,4.6-3.4,5.8-5.9,5.8s-5.9-1.2-5.9-5.8V21.6z M192.8,21.6
			c0-2.1-1.2-3.1-3-3.1s-3,1-3,3.1v3c0,2.1,1.2,3.1,3,3.1s3-1,3-3.1V21.6z"/>
		<path d="M218.7,14h-2.9v-2.9h2.9V14z M218.7,30.2h-2.9V16.1h2.9V30.2z"/>
		<path d="M222.6,25.7h2.9c0.2,1.4,1.6,2,3.1,2c1.3,0,2.3-0.3,2.3-1.5c0-1-0.8-1.3-1.8-1.5l-2.7-0.7c-1.9-0.5-3.6-1.5-3.6-4.2
			c0-2.8,2.2-4.2,5.1-4.2c3,0,5.1,1.4,5.4,4.5h-3c-0.2-1.2-1.3-1.7-2.6-1.7c-0.9,0-2,0.3-2,1.4c0,0.8,0.8,1.1,1.6,1.3l2.6,0.7
			c2.6,0.7,3.9,1.7,3.9,4.4c0,2.8-2.2,4.2-5.2,4.2C225.3,30.5,222.8,28.9,222.6,25.7z"/>
		<path d="M240.4,21.8l5.3-5.7h3.5l-5.1,5.5l5.8,8.6h-3.3l-4.4-6.5l-1.7,1.9v4.6h-2.9V11.1h2.9v10.7H240.4z"/>
		<path d="M208.3,29.6V28c-0.4,0.8-1.8,1.6-3.3,1.6c-2.4,0-5.6-1.5-5.6-5.8v-2.2c0-4.3,3.2-5.8,5.6-5.8c1.5,0,2.9,0.8,3.3,1.6v-1.2
			h2.9v13.5c0,4.6-3.4,5.8-5.9,5.8c-2.3,0-5.4-1.1-5.8-5h2.9c0.3,1.5,1.4,2.3,2.9,2.3C207.1,32.7,208.3,31.7,208.3,29.6z
			 M202.3,23.8c0,2.1,1.2,3.1,3,3.1s3-1,3-3.1v-2.1c0-2.1-1.2-3.1-3-3.1s-3,1-3,3.1V23.8z"/>
	</g>
	<g>
		<g>
			<defs>
				<polygon id="SVGID_1_" points="7.4,3.6 9.8,3.6 7.4,6 				"/>
			</defs>
			<clipPath id="SVGID_2_">
				<use xlink:href="#SVGID_1_"  style="overflow:visible;"/>
			</clipPath>
		</g>
	</g>
</g>
</svg>
