<?xml version="1.0" encoding="utf-8"?>
<svg id="symbolPrimitiveDefs" style="display:none;">
	<symbol id="clear" class="clear-primitive">
		<polygon points="0,75 100,75 50,0" fill="#000000" stroke-width="0" stroke-opacity="0" width="100" height="100"></polygon>
	</symbol>
	<symbol id="precipitation" class="precipitation-primitive">
		<rect fill="#000000" stroke-width="0" stroke-opacity="0" width="100" height="100"></rect>
	</symbol>
	<symbol id="line">
		<line fill="#000000" stroke-width="3" x1="50" y1="100" x2="50" y2="130"></line>
	</symbol>
	<symbol id="dry-weather">
		<use xlink:href="#clear" x="0" y="0" width="100" height="100" transform="translate(5,5) scale(1,1)"></use>
	</symbol>
	<symbol id="wet-weather">
		<use xlink:href="#precipitation" x="0" y="0" width="100" height="100" transform="translate(5,5) scale(1,1)"></use>
	</symbol>
	<symbol id="clearing-up">
		<use xlink:href="#clear" x="0" y="0" width="100" height="100" transform="translate(5,5) scale(1,1)"></use>
		<use xlink:href="#line" width="100" height="100" transform="translate(5,5) scale(1,1)"></use>
		<use xlink:href="#precipitation" x="0" y="130" width="100" height="100" transform="translate(5,5) scale(1,1)"></use>
	</symbol>
	<symbol id="unstable">
		<use xlink:href="#precipitation" x="0" y="0" width="100" height="100" transform="translate(5,5) scale(1,1)"></use>
		<use xlink:href="#line" width="100" height="100" transform="translate(5,5) scale(1,1)"></use>
		<use xlink:href="#clear" x="0" y="130" width="100" height="100" transform="translate(5,5) scale(1,1)"></use>
	</symbol>
</svg>